<?xml version="1.0" encoding="UTF-8" standalone="no"?>
<svg xmlns:rdf="http://www.w3.org/1999/02/22-rdf-syntax-ns#" xmlns="http://www.w3.org/2000/svg" xml:space="preserve" height="102.03" width="130.62" version="1.1" xmlns:cc="http://creativecommons.org/ns#" xmlns:dc="http://purl.org/dc/elements/1.1/" viewBox="0 0 130.62038 102.02633"><g transform="translate(.0025394 .18598)"><path fill="#07294d" d="m42.874 0.8845c-17.086 14.908-23.321 28.074-24.049 39.008 3.4025 1.2162 7.4156 2.4754 11.984 3.6191-5.8675-18.61 11.23-40.9 11.23-40.9-13.08 19.727-13.064 32.955-9.7812 41.254 2.2212 0.52875 4.5609 1.0299 7.0234 1.4824-0.0375 1.8225 0.31328 11.731 12.051 13.861 0 0 2.021-8.8103 16.572-11.352-0.2825 0.7925-0.39914 1.7495-0.33789 2.8633l0.03125 0.54687-2.3496 0.02148-5.2305-0.21875c-1.03 0.4225-1.9409 0.91773-2.7422 1.459h0.11133c2.3025 0 3.3348 0.2075 5.5586 3.7188l2.3027 3.5781h0.87305l-0.82812-8.082 2.7344 1.9043 1.0547 2.3965c-1.2275-0.575-1.5957-2.168-1.5957-2.168l-0.99219 0.09961s-0.03211 0.91695 0.02539 2.1895c0.18875 2.4 0.92445 3.8997 2.1895 4.4609 0.74 0.3275 1.5766 0.28648 2.4141 0.05273l1.1309 2.5723-5.1719 12.949-1.373 1.0117 0.9668-8.0938h-0.79297l-1.9844 3.0293c-0.66 1.0025-1.402 2.1605-2.3457 3.0918-0.42 0.41375-0.87422 0.78797-1.3867 1.0742-0.795 0.4475-1.7468 0.55078-2.7793 0.55078h-1.5078v-11.256c1.985 0 3.0952-0.000078 4.3652 2.5137l1.1133 2.1328h0.79297v-11.049h-0.79297l-1.1133 2.3398c-0.37625 0.79375-0.80047 1.3022-1.2617 1.6484-0.90125 0.6775-1.9485 0.69141-3.1035 0.69141v-10.285c-3.2538 2.83-4.1309 6.168-4.1309 6.168-0.41-0.0875-0.80625-0.17984-1.1875-0.27734v3.2207l-1.8418 2.2227 1.8418 2.0488v9.5859l-1.1953 1.625-1.0391-1.0137v-9.0938c0-2.5812-2.9359-3.1317-5.3984-3.5117 1.34-0.2075 3.0151-0.48578 4.1426-1.2695 0.745-0.5175 1.2559-1.2488 1.2559-2.3438v-2.1328c-2.9838-1.0162-4.7922-2.1971-5.3984-2.6309v5.1074c0 0.94625-0.33805 1.5448-1.0605 1.9023-0.615 0.30625-1.5082 0.4375-2.752 0.4375h-1.1895v-11.74l1.1895 0.24805c0.055 0 0.11031 0.0034 0.16406 0.0059-0.61875-1.1188-0.99742-2.3957-1.1699-3.0645l-7.5664-1.5879 1.9824 3.2422v11.963l-1.8379 2.2227 1.8379 2.0488v12.906l-1.9824 2.7383c4.7762-1.4025 9.3672-2.0176 9.3672-2.0176l-1.9844-2.0586v-13.117h1.4297c2.62 0 3.5723 0.58586 3.5723 1.7559v12.9c1.985-0.5225 7.3164-1.0371 7.3164-1.0371 4.4338-0.47375 11.697-0.60086 14.322-0.63086l10.92 0.16992-1.9473-2.2227 2.0801-9.6016 2.3262 9.6016-1.9707 2.2578 10.838 1.043c4.94 0.80375 12.342 2.5067 14.762 3.0742 0.345 0.08125 0.59414 0.14047 0.71289 0.16797 3.4462 0.53625 11.275 3.5422 13.949 4.5859 0.57875 0.22375 0.92773 0.36328 0.92773 0.36328v-30.248h-1.0312l-2.9394 25.111-3.332-0.9707v-24.854l1.2012-0.15625-1.2012-0.5293v-5.0566c0.3875 0.4725 0.79664 1.0231 1.2441 1.6719 1.9962 2.8925 5.6014 2.1295 5.7539 2.0957l0.95703-0.21484-0.73242-0.65234c-2.6862-2.4-3.9314-4.5866-3.5977-6.3203 0.3925-2.0488 2.8441-2.9646 2.8691-2.9746l0.99024-0.36133-0.90626-0.54492c-2.0875-1.2525-3.4783-0.81-5.2383-0.25-1.7362 0.55375-3.8964 1.2412-7.8164 0.8125-0.43125-0.0475-1.9351-0.59039-3.1426-1.0566-0.27125-0.105-0.53281-0.20562-0.75781-0.29688l-0.95508-0.38281 0.2832 0.98828c0.0037 0.01375 0.008 0.02656 0.01172 0.03906 0.71625 2.4862 1.4643 3.4326 2.5605 3.8613l-6.291 1.0859c1.735-1.9725 2.4223-4.4584 2.4648-4.6172l0.0059-0.02539 0.16211-0.60742h-0.65625c-1.3312 0-2.3984-0.22328-3.2559-0.58203l0.07227-0.11523c-0.0087-0.0075-0.90898-0.77172-0.95898-1.668-0.0225-0.40375 0.12524-0.77109 0.45898-1.1211l0.31641-0.33203-0.42188-0.18164c-0.36875-0.16-1.1409-0.23961-1.7422 0.36914-0.07875-0.1025-0.15125-0.23492-0.15625-0.38867v-0.01758c0-0.3225 0.29422-0.62547 0.54297-0.82422l0.36719-0.29687-0.40625-0.23242c-0.1675-0.09625-1.0119-0.54656-1.5469-0.25781-0.08125-0.9-0.65852-1.9298-1.1973-2.7148 0.84 0.09375 1.8013 0.0525 2.7988 0l1.0605 1.6777s0.70109-0.56664 0.99609-0.80664c0.21375 0.37125 0.71875 1.2578 0.71875 1.2578s1.3337-0.66719 1.6074-0.80469c0.23625 0.20125 0.65641 0.70148 0.19141 1.5527l-0.18945 0.34766 0.38086 0.11133c0.39375 0.11625 1.1645 0.06594 1.6895-0.69531 0.05875 0.13375 0.10352 0.35383 0.10352 0.54883-0.03 0.60375-0.49078 1.2655-1.332 1.918l-0.80274 0.62305 1.0137-0.04883c0.11625-0.0063 2.7841-0.16047 3.5879-2.1992 0.36125 0.39 0.57773 0.65461 0.58398 0.66211l1.0117 1.248-0.11719-1.6016c-0.4775-6.5612 2.4902-9.3038 2.5215-9.3301l1.0586-0.95117-1.4199 0.07031c-2.4725 0.12625-3.8154 1.1432-4.4316 1.7832-1.73-1.7238-5.6961-1.8058-7.8398-1.707 0.53-0.53125 1.9199-1.9258 1.9199-1.9258h-1.2148c-1.365 0-2.9819-0.19945-4.7344-0.5332-1.4075-1.8288-5.4134-7.6435-5.3359-14.51 0 0-1.0873 7.4753-3.666 8.7266-2.3338-2.62-4.9015-6.4018-7.459-11.873 0 0 0.91805 5.2691-0.4707 9.9766l-5.6816-5.3457-3.1348 4.5488c-0.6975-0.46-5.2578-3.4688-5.2578-3.4688s-1.2833 3.1956-1.9258 4.7969c-9.568-5.65-12.489-18.207-12.489-18.207z"/><path d="m93.751 34.962c-0.3825 0.035-0.78383 0.09375-1.2051 0.1875 0.13875 0.2175 0.46031 0.72594 0.57031 0.89844 0.18375-0.15 1.0117-0.82422 1.0117-0.82422s0.66398 1.1634 0.77148 1.3496c0.195-0.09875 1.4629-0.72852 1.4629-0.72852l0.0625 0.0332c0.01 0.0063 0.75977 0.45476 0.75977 1.3223 0 0.225-0.06906 0.48438-0.19531 0.76562 0.2825 0.02625 0.90656-0.02406 1.2578-0.94531l0.07031-0.1875 0.14844 0.13476c0.02 0.02 0.49414 0.46188 0.49414 1.2031 0 0.02375-0.0039 0.04852-0.0039 0.07227-0.02625 0.65625-0.43633 1.3216-1.1738 1.9766 0.745-0.12625 2.2602-0.55062 2.7715-1.8906-0.20125-0.365-1.4584-2.4338-4.1172-3.1562-0.05125 0.0038-0.1057 0.004-0.1582-0.0098-0.745-0.18625-1.6186-0.22242-2.5273-0.20117zm-3.0156 3.1582c-0.07289 0.0016-0.13688 0.0143-0.1875 0.04492-0.0725 0.045-0.11516 0.13-0.12891 0.25 0.17125 1.0175 0.73328 2.8509 2.582 3.9922-0.27-0.375-0.5332-0.87266-0.5332-1.4414 0-0.425 0.17891-0.8193 0.47266-1.1855-0.275-0.06375-0.84758-0.10203-1.2676 0.54297l-0.07617 0.11524-0.11523-0.07617c-0.021-0.015-0.53-0.375-0.552-0.952v-0.03906c0-0.35125 0.19414-0.69891 0.55664-1.0352-0.23625-0.11344-0.53133-0.21971-0.75-0.21484z" fill="#fff"/><path fill="#ffc600" d="m42.04 2.6091s-17.098 22.292-11.23 40.9c-4.569-1.143-8.582-2.399-11.985-3.615-8.5059-3.041-13.199-5.815-13.199-5.815l3.7969 11.627v16.051l-3.2598 3.3203 3.2598 3.3184v17.223l-8.4979 15.296s9.1933-6.0433 24.051-11.145l1.9922 7.2305c10.539-3.4375 23.675-6.2852 38.268-6.2852 14.594 0 27.727 2.8477 38.266 6.2852l1.9922-7.2305c14.859 5.1012 24.051 11.145 24.051 11.145l-8.4961-15.291v-17.223l3.2578-3.3184-3.2578-3.3203v-16.051l3.7969-11.627s-4.5657 2.6955-12.846 5.6855c-0.47125 0.67-1.002 1.3072-1.6894 1.8359-2.2 1.6912-5.3476 1.4718-7.4238 1.0605-0.86 0.2375-1.7363 0.47383-2.6426 0.70508 1.2088 0.46625 2.7126 1.0072 3.1426 1.0547 3.92 0.4275 6.0802-0.26 7.8164-0.8125 1.7588-0.56 3.1508-1.0025 5.2383 0.25l0.90626 0.54492-0.99219 0.36133c-0.025 0.0087-2.4754 0.92516-2.8691 2.9727-0.3325 1.735 0.91336 3.9223 3.5996 6.3223l0.73242 0.65234-0.95899 0.2168c-0.1525 0.03375-3.7557 0.79484-5.752-2.0977-0.44875-0.65-0.85594-1.1981-1.2422-1.6719v5.0566l1.1992 0.5293-1.1992 0.1543v24.855l3.3301 0.9707 2.9414-25.111h1.0293v30.248s-0.34828-0.14024-0.92578-0.36524c-2.675-1.0425-10.505-4.0477-13.951-4.584-0.12-0.0275-0.36789-0.08797-0.71289-0.16797-2.42-0.5675-9.8237-2.2724-14.764-3.0762l-10.836-1.0391 1.9707-2.2617-2.3262-9.5996-2.082 9.5996 1.9473 2.2246-10.918-0.16992c-2.6262 0.03-9.8898 0.15711-14.322 0.63086 0 0-5.3314 0.51586-7.3164 1.0371v-12.9c0-1.17-0.95297-1.7559-3.5742-1.7559h-1.4277v13.117l1.9844 2.0586s-4.5916 0.61703-9.3691 2.0195l1.9844-2.7422v-12.904l-1.8398-2.0488 1.8398-2.2227v-11.963l-1.9844-3.2441 7.5664 1.5898c0.1725 0.66875 0.55312 1.9457 1.1719 3.0645-0.05375-0.0025-0.10711-0.0059-0.16211-0.0059l-1.1914-0.24805v11.742h1.1914c1.2438 0 2.1338-0.13445 2.75-0.43945 0.72125-0.3575 1.0605-0.9568 1.0605-1.9043v-5.1074c0.60625 0.435 2.4147 1.6173 5.3984 2.6348v2.1309c0 1.095-0.51086 1.8262-1.2559 2.3438-1.1275 0.7825-2.8038 1.062-4.1426 1.2695 2.4625 0.38 5.3984 0.93047 5.3984 3.5117v9.0938l1.0371 1.0137 1.1953-1.627v-9.584l-1.8398-2.0488 1.8398-2.2227v-3.2207c0.3825 0.09875 0.7775 0.18984 1.1875 0.27734 0 0 0.87906-3.3399 4.1328-6.1699v10.287c1.155 0 2.2023-0.01391 3.1035-0.69141 0.46125-0.34625 0.88547-0.85469 1.2617-1.6484l1.1133-2.3398h0.79297v11.049h-0.79297l-1.1133-2.1348c-1.27-2.5125-2.3802-2.5117-4.3652-2.5117v11.254h1.5078c1.0325 0 1.9843-0.10133 2.7793-0.54883 0.5125-0.28625 0.96797-0.65852 1.3867-1.0723 0.945-0.93125 1.6845-2.0925 2.3457-3.0938l1.9844-3.0293h0.79297l-0.96484 8.0918 1.3711-1.0098 5.1738-12.949-1.1328-2.5723c-0.8375 0.23375-1.6734 0.27352-2.4121-0.05273-1.265-0.56125-2.0039-2.0622-2.1914-4.4609-0.0575-1.2725-0.02734-2.1895-0.02734-2.1895l0.994-0.108s0.36695 1.5949 1.5957 2.1699l-1.0566-2.3965-2.7324-1.9043 0.82812 8.082h-0.87305l-2.3027-3.5801c-2.2238-3.51-3.2548-3.7168-5.5586-3.7168h-0.11133c0.8-0.54125 1.7109-1.0365 2.7422-1.459l5.2305 0.21875 2.3496-0.02148-0.0293-0.54687c-0.0625-1.115 0.05344-2.0708 0.33594-2.8633-14.551 2.542-16.572 11.35-16.572 11.35-11.739-2.128-12.088-12.037-12.051-13.859-2.4638-0.4525-4.8022-0.95438-7.0234-1.4844-3.2825-8.2988-3.2988-21.525 9.7812-41.254z"/><path fill="#ffc600" d="m77.613 51.881c-0.715 1.865-1.2598 3.6807-1.2598 4.7832l0.05273 0.5918-0.35938 0.33984c-0.23125 0.2175-0.76274 0.69836-1.459 1.2246l1.1582 3.373 2.9902-8.7148-1.123-1.5977zm8.2734-0.92774-2.7832 2.3906-3.8711 9.9082 5.1719 13.479 1.8223 1.8125 1.1602-1.2891v-10.133l-1.8379-2.0488 1.8379-2.2207v-9.959l-1.5-1.9395zm10.535-0.04102c-0.74815 0.02492-1.5048 0.14844-2.2051 0.14844l-1.5078 0.11133v12.736c1.155 0 2.2003-0.01516 3.1016-0.69141 0.46125-0.3475 0.88812-0.85469 1.2656-1.6484l1.1094-2.3418h0.79688v11.049h-0.79688l-1.1094-2.1328c-1.27-2.5138-2.3822-2.5137-4.3672-2.5137v12.277s2.5396 0.000938 4.2871-0.0078c0.51125-0.285 0.96727-0.65977 1.3848-1.0723 0.94375-0.93125 1.6864-2.0905 2.3477-3.0918l1.9844-3.5723h0.79492l-1.0996 12.625 2.0586-2.2617v-24.854c-0.0238-0.0275-0.0524-0.05133-0.0762-0.08008-0.51-0.6125-0.75977-1.3488-0.97851-2-0.24126-0.71125-0.44477-1.2773-0.88477-1.6211l0.42383 4.2266h-0.87305l-2.3027-3.5801c-0.886-1.515-2.107-1.744-3.354-1.703zm-47.658-0.04102c-0.06625 0.355-0.13867 0.88524-0.13867 1.5527 0 1.425 0.34594 3.3776 1.8359 5.0801 0.03875-0.3325 0.17461-1.2698 0.44336-1.5898-0.15625-0.16625-2.0769-2.3042-2.1406-5.043zm22.121-1.0234c-0.3775 0-0.91078 0.50266-1.4258 1.3477l-0.0332 0.05664 3.2793-0.03125v-0.002c0-0.005 0.02234-0.50641-0.31641-0.87891-0.29625-0.32625-0.80141-0.49219-1.5039-0.49219zm-18.525-0.997c-0.3725 1.0325-0.90508 3.2744 0.26367 5.5781 0.1125-0.2675 0.42992-0.97812 0.70117-1.2656-0.10125-0.19-1.2548-2.3675-0.96484-4.3125zm3.9414-0.92188s-1.0098 1.4805-0.58984 3.4668c0 0 0.55844-0.78547 0.86719-0.85547 0 0-0.69609-1.8313-0.27734-2.6113zm3.182-0.06641c-0.24375 0.23625-0.58594 1.4629-0.58594 1.4629 0.24375-0.235 0.83203-0.31641 0.83203-0.31641-0.26875-0.3275-0.24609-1.1465-0.24609-1.1465zm42.625-0.07813 0.19532 1.9688c0.35875-0.11875 0.75679-0.19367 1.1855-0.16992 0.34 0.01875 0.66086 0.11484 0.97461 0.24609v-0.43164l-1.3008-1.4551c-0.3825-0.04375-0.73344-0.09195-1.0547-0.1582zm-11.967-2.252c-3.7275 0.65625-7.7153 1.2026-11.945 1.5801l1.0078 1.0703-0.29102 0.625c-0.31875 0.6875-0.64297 1.4277-0.94922 2.1777l7.4395-0.6543 5.375-0.92774c0.04625-1.0088-0.01047-2.6011-0.63672-3.8711zm8.6836-1.8184c-0.41875 0.10125-0.83227 0.20273-1.2598 0.30273l-0.0059 0.02539c-0.0425 0.15875-0.72789 2.6447-2.4629 4.6172l6.2891-1.0859c-1.0963-0.42875-1.8443-1.3744-2.5606-3.8594zm-44.428-8.8731c-0.05625 2.275 2.2738 5.1403 3.8613 6.8203l2.1113 0.08008c0.43625-0.5625 0.91602-1.0195 0.91602-1.0195-4.0338-0.50375-6.8887-5.8809-6.8887-5.8809zm20.906-1.6562c-0.4 0.27875-0.78344 0.56758-1.1484 0.86133 0.71-0.0075 2.1531-0.01367 2.4844 0.08008 0 0-0.59094-0.30016-1.3359-0.94141zm-16.851-1.8515c1.03 5.9112 4.0508 8.1289 4.0508 8.1289 0.65625-1.1012 1.9375-1.6602 1.9375-1.6602-3.3425-1.0588-5.9883-6.4688-5.9883-6.4688zm4.8086-1.5957c0.73375 4.5562 2.5605 7.2031 2.5605 7.2031 1.0888-0.82 2.0723-1.1426 2.0723-1.1426-2.675-1.28-4.6328-6.0605-4.6328-6.0605zm5.0391-0.31445s-0.15266 3.7934 1.1523 5.5371c0 0 0.35945-0.12203 0.7832-0.23828 0.0675-0.40875 0.12883-0.8082 0.17383-1.1895-0.716-0.798-1.602-2.115-2.109-4.109zm14.34-12.859s-0.33227 3.2959-2.5723 4.7246c0.84875 0.8825 1.664 1.6123 2.4277 2.2148l3.2363 2.0176c0.46 0.20875 0.87469 0.36688 1.2422 0.48438-1.135-1.4588-3.9565-5.4477-4.334-9.4414zm-16.783-1.8066-3.0273 4.3965s-4.2177-2.7827-5.0527-3.334c-0.21625 0.53875-0.94687 2.3552-1.5156 3.7715 1.0562 0.5525 2.1918 1.0177 3.4043 1.3789 3.3562-1.2275 6.1289-2.2402 6.1289-2.2402l4.7324 2c0.1775-0.35375 0.33922-0.71328 0.48047-1.082l-5.1504-4.8906zm7.584-0.79688s1.5689 6.896-3.3086 10.26c0 0 3.7841 4.2571 0.83789 11.6 0 0 4.7432-6.4391 10.096-5.4629 0.18125 0.0375 0.35383 0.07719 0.51758 0.11719-0.02875 0.05125-0.06437 0.11414-0.10938 0.18164-0.14875 0.15625-3.6148 3.8307-0.77734 8.2832 1.3962 2.1962 3.1114 2.5839 5.0977 3.0352 1.135 0.2575 2.3095 0.52461 3.457 1.1621 2.17 1.205 2.5547 3.9346 2.5547 5.7246 0 0.35875-0.01711 0.66524-0.03711 0.92774 2.7462-0.94 4.1384-4.0722 4.6172-5.3984-4.8975-0.2875-6.8655-3.6159-7.043-6.4922-0.06375-1.0625-1.3132-2.7335-1.8457-3.3535 0 0-0.66906-0.43078-1.3828-1.1133-0.53625-0.56125-0.985-1.1766-1.3125-1.6816-0.26875-0.52875-0.41719-1.0958-0.33594-1.6758 1.3962 2.825 3.2824 3.645 4.2324 3.875 0.155 0.0375 0.34141 0.07109 0.50391 0.08984 1.405 0.16875 3.3794-0.10859 5.1719-0.08984 0.75375 0.0087 1.4834 0.07133 2.1484 0.23633 1.875 0.47 3.7709 2.1777 4.8672 3.3164 0-0.03125-0.004-0.06375-0.004-0.09375 0-3.9163 1.1791-6.3473 2.0391-7.6035-2.0262 0.44625-2.7782 1.5883-2.8145 1.6445l-0.42774 0.69141-0.42969-0.68555c-1.24-1.9825-6.682-1.8675-8.6758-1.6562l-1.418 0.15039s1.629-1.6283 2.209-2.207c-1.3625-0.09-2.8916-0.3232-4.5078-0.6582l-0.03125 0.01563c-1.2462-0.285-8.1437-2.2987-13.889-13.139zm-31.691-8.4336s-6.2455 16.695 1.5332 30.869c0 0 0.65781-0.58016 1.9141-0.91016 0 0-8.296-10.884-3.4473-29.959zm1.259-0.0277c1.9737 12.772 15.119 19.209 15.119 19.209-15.211-0.81875-11.621 11.74-11.621 11.74s-7.3979 1.6766-7.2129 8.6016c0 0 3.2438 4.9727 7.4688 4.9727 7.7825-5.4112 19.374-3.9988 21.971-3.5938 0.3775-0.39625 0.87227-0.70531 1.416-0.88281 1.0225-0.325 2.3223-0.24672 3.8848 0.23828 0.265 0.0825 0.41453 0.36461 0.33203 0.63086-0.08375 0.26625-0.36586 0.41453-0.63086 0.33203-1.9275-0.6-3.3277-0.51133-4.1602 0.26367-0.9375 0.87-1.0552 2.4648-0.99024 3.6523 0.54625-0.895 1.3406-1.8359 2.2969-1.8359 1.0012 0 1.761 0.27742 2.2598 0.82617 0.6575 0.725 0.57672 1.6422 0.57422 1.6484-0.0088 0.24375-0.24656 5.9688-3.6953 5.9688-1.0962 0-1.9101-0.52484-2.4863-1.1836 0.155 1.97 0.68844 3.2087 1.5859 3.6074 1.8088 0.8 4.9652-1.6568 6.2227-2.8418-0.005-0.06125-0.01367-0.11469-0.01367-0.17969 0-2.3987 2.0445-6.9742 2.6582-8.293-0.415-0.44375-4.577-4.874-4.832-5.1465l-27.768-1.0469s0.29883 0.01195 5.2051-1.0293c-0.1825-1.9213-0.17836-6.8882 4.1816-10.002 5.1688-3.6925 11.78-3.577 15.35-3.1582-0.7475-2.885-2.2637-3.998-2.2637-3.998 0.88625-0.66125 1.5939-1.473 2.1602-2.373-2.1412-0.83-3.6873-1.4767-4.2148-1.6992-0.07625 0.0275-1.679 0.61078-4.1777 1.5195 1.2688 0.2375 2.613 0.36281 4.043 0.35156 1.5125-0.0125 1.1023 3.8823-3.7715 2.4785-0.208-0.075-0.412-0.155-0.613-0.234-14.854-5.798-17.788-16.113-18.279-18.541z"/><path d="m73.916 16.191s0.70486 6.1767 4.1523 8.8242c0 0-3.5918-1.7641-7.4355-1.0078 0 0 4.6634 0.75737 6.7422 3.3398 0 0-4.0419 2.3102-4.9219 5.209 0 0 3.9046-4.5488 8.7246-3.3613 0 0-1.4716-2.7309-0.33789-4.1172 0 0-4.4851-2.3855-6.9238-8.8867zm9.1152 10.391c1.45 1.69 5.5117 3.3477 5.5117 3.3477l-1.4199-1.252c0.90001 0.20125 2.2207-0.38086 2.2207-0.38086-3.44 0.3125-6.3125-1.7148-6.3125-1.7148zm31.184 4.6289c-1.5079-0.0653-3.0301 0.51791-4.5352 1.7363-0.83376 0.675-1.3522 1.6573-1.8984 2.6973-1.1262 2.1475-2.4065 4.5785-6.959 5.4785l-1.7676 0.34961 1.6934 0.61719c0.09 0.03375 0.93471 0.33476 2.1348 0.57226 2.0775 0.4125 5.2258 0.63268 7.4258-1.0586 0.68752-0.5275 1.2189-1.1647 1.6914-1.8359 0.33625-0.4775 0.64656-0.97288 0.94531-1.4629 1.3562-2.2275 2.4295-3.9884 5.9883-3.0234l1.2441 0.33594-0.68554-1.0898c-0.0712-0.1125-1.7683-2.773-4.6309-3.248-0.21469-0.03578-0.43106-0.05903-0.64649-0.06836zm-14.98 0.86133s0.06348 2.078 1.2598 3.5918c0 0-0.18791-2.0166 0.81836-3.2754 0 0-1.1335 0.81832-1.2598 1.0684 0 0-0.75586-0.75472-0.81836-1.3848zm-86.594 9.0859 1.8203 3.8438v18.049l-1.7598 1.875 1.7598 1.9844v19.344l-1.8203 2.3633 8.4941-3.2168c3.7762-1.16 6.0441-2.4324 7.4004-3.7012 1.525-1.4312 1.8906-2.8565 1.8906-4.1152v-24.238c0-4.4912-2.5643-5.4814-7.623-7.6914l-10.167-4.497zm7.6992 6.7188 1.3516 0.48828c2.64 0.95751 3.7305 3.3593 3.7305 4.5293v23.354c0 2.18-0.63401 3.4448-1.6777 4.291-0.87626 0.71001-2.038 1.1293-3.4043 1.498v-34.16zm43.9 34.287c-0.88945 0.03123-1.1621 0.1957-1.1621 0.58008v4.4707c0 0.51 0.48455 0.66406 2.2695 0.72656l3.3301 0.11719v-3.2695l-2.7852-0.09766v0.46094l0.96875 0.0332v2.3516l-1.9062-0.06641v-4.8516l1.9062 0.06641v1.0469l1.7246 0.05859v-1.502l-3.2383-0.11328c-0.44625-0.01594-0.81096-0.02209-1.1074-0.01172zm-7.4043 0.28711c-0.29232-0.0056-0.65082 0.0042-1.0898 0.02734l-1.1504 0.05859c-1.755 0.09375-2.2402 0.25757-2.2402 0.76758v4.6621l-0.81641 0.04297v0.45898l2.6934-0.14062v-2.8105l1.875-0.09961v2.8105l2.6934-0.14258v-0.45898l-0.81641 0.04492v-4.6621c0-0.38156-0.27149-0.54178-1.1484-0.55859zm17.764 0.0078c-0.88964-0.03117-1.1602 0.11258-1.1602 0.49414v4.4746c0 0.51 0.4833 0.69922 2.2695 0.88672l1.1191 0.11719c1.7838 0.18875 2.2715 0.1004 2.2715-0.41211v-4.4707c0-0.51125-0.4877-0.69672-2.2715-0.88672l-1.1191-0.11523c-0.447-0.047-0.81337-0.07494-1.1094-0.08594v-0.002zm-18.492 0.45898v2.043l-1.875 0.09766v-2.041l1.875-0.09961zm19.209 0.04297 1.9082 0.20117v4.8535l-1.9082-0.20312v-4.8496-0.002zm8.0527 0.23437v0.45703l0.81836 0.14648v4.8496l-0.81836-0.14453v0.45898l2.6934 0.47461v-5.3086l1.877 0.33594v5.3066l2.6914 0.47656v-0.45898l-0.81445-0.14648v-4.6641c0-0.51-0.45467-0.72478-2.2422-1.041l-4.2051-0.74219zm-37.389 0.30859c-0.29361 0.0098-0.65696 0.03906-1.1035 0.08594l-4.2051 0.44531v0.45508l0.81641-0.08398v4.8535l-0.81641 0.08594v0.45508l2.6934-0.28125v-2.8086l1.873-0.19922v2.8086l2.6953-0.2832v-0.45898l-0.81836 0.08789v-1.9727c0-0.37125-0.23859-0.50195-0.99609-0.50195 0.7575-0.165 0.99609-0.33648 0.99609-0.70898v-1.4805c0-0.38062-0.25389-0.52734-1.1348-0.49805zm-0.74219 0.50977v2.0391l-1.873 0.19922v-2.041l1.873-0.19727zm-9.0801 1.0566c-0.33688-0.01438-0.89652 0.0907-1.7891 0.31445l-4.209 1.0488v0.4668l0.81836-0.20312v4.8438l-0.81836 0.20117v0.45898l4.209-1.0469c1.785-0.44625 2.2402-0.69951 2.2402-1.207v-4.4707c0-0.25625-0.1143-0.39188-0.45117-0.40625zm58.963 0.36133c-0.34109 0.0073-0.46289 0.13758-0.46289 0.39258v1.6699c0 0.51 0.45592 0.76092 2.2422 1.2422l1.5117 0.4043v2.3477l-1.877-0.5v-1.4277l-1.7539-0.4668v1.8809l3.2676 0.87891c1.7575 0.47 2.2402 0.46047 2.2402-0.05078v-1.9707c0-0.51-0.48275-0.77875-2.2402-1.25l-1.5137-0.4043v-2.041l1.877 0.50195v1.0488l1.7559 0.46875v-1.5039l-3.2676-0.87695c-0.87689-0.23438-1.4382-0.34914-1.7793-0.3418v-0.002zm-60.391 0.32812v4.8359l-1.875 0.46875v-4.8359l1.875-0.46875z" fill="#07294d" transform="matrix(.99999 0 0 .99999 0 -.001976)"/><path d="m114.16 32.216c-1.2526-0.04698-2.5435 0.46062-3.8418 1.5117-0.6725 0.545-1.1212 1.3966-1.6387 2.3828-1.0138 1.9312-2.2484 4.2671-5.8184 5.5059 1.8888 0.39875 4.8786 0.6918 6.8398-0.81445 1.0288-0.7925 1.7199-1.9252 2.3887-3.0215 1.2225-2.01 2.4962-4.0635 5.7188-3.7285-0.68375-0.7075-1.7502-1.5562-3.1152-1.7812-0.17734-0.02937-0.35426-0.04798-0.5332-0.05469zm-0.40625 11.854c-0.69201 0.01234-1.382 0.22734-2.2422 0.5-1.73 0.55125-4.1005 1.3041-8.2305 0.85156-0.57-0.06125-2.1277-0.63-3.1777-1.0312 0.81 2.2762 1.6187 2.3775 3.2949 2.5625 0.85625 0.095 1.9202 0.21438 3.2402 0.64062 1.9988 0.64375 3.337 1.821 5.3008 4.666 1.0288 1.4875 2.6138 1.7716 3.6562 1.7754-2.4225-2.385-3.473-4.5704-3.0918-6.4941 0.32375-1.6662 1.6102-2.7004 2.5352-3.2441-0.45469-0.16875-0.86996-0.23397-1.2852-0.22656zm-10.309 6.5195c-0.36874-0.0225-0.71507 0.06961-1.0176 0.19336 1.2225 0.42 1.6038 1.4976 1.9375 2.4863 0.20125 0.59375 0.41078 1.207 0.80078 1.6758 0.5425 0.65 1.4538 0.91562 2.2676 1.0156-1.1225-0.9725-1.4345-2.1034-1.6758-2.9922-0.13874-0.51875-0.25874-0.96508-0.5-1.2676-0.5525-0.6975-1.1625-1.0738-1.8125-1.1113z" stroke="#9e0b0f" stroke-width="0.3" fill="#9e0b0f"/></g></svg>
